<?xml version="1.0" standalone="no"?>
<!DOCTYPE svg PUBLIC "-//W3C//DTD SVG 1.1//EN" "http://www.w3.org/Graphics/SVG/1.1/DTD/svg11.dtd" >
<!--
2013-9-30: Created.
-->
<svg>
<metadata>
Created by iconfont
</metadata>
<defs>

<font id="iconfont" horiz-adv-x="1024" >
  <font-face
    font-family="iconfont"
    font-weight="500"
    font-stretch="normal"
    units-per-em="1024"
    ascent="896"
    descent="-128"
  />
    <missing-glyph />
    
    <glyph glyph-name="qiche" unicode="&#58961;" d="M949.331905 326.723505c-3.657296 48.948829-35.241642 92.183516-80.490196 112.342648l-40.647769 191.108572c-14.877849 69.88772-85.074607 126.727263-156.523893 126.727263L351.41 756.901988c-71.450309 0-141.66651-56.838519-156.523893-126.727263l-40.667212-191.108572c-45.249577-20.178575-76.813456-63.393819-80.471776-112.342648l-9.205663-122.597199c-3.945869-52.668547 26.01449-100.158141 73.031317-119.370715 10.809183-42.331108 48.989761-73.217558 94.198405-73.217558 42.002626 0 77.757968 26.221198 91.361801 64.052828l376.812041 0c13.604856-37.83163 49.359174-64.052828 91.342358-64.052828 45.208645 0 83.429131 30.886451 94.238314 73.217558 47.01785 19.212574 76.956719 66.681702 72.991408 119.370715L949.331905 326.723505zM854.949304 132.265652c-11.896958-2.774183-20.50808-13.08911-21.125133-25.296129-1.12973-22.830985-19.809161-40.72861-42.535769-40.72861-22.151509 0-40.359196 16.808828-42.332131 39.105646-1.233084 14.117532-13.068643 24.925692-27.248597 24.925692L301.351907 130.272251c-14.178931 0-25.995047-10.80816-27.248597-24.925692-1.972934-22.296819-20.159132-39.105646-42.331108-39.105646-22.707165 0-41.385573 17.877159-42.516326 40.72861-0.596588 12.20702-9.227152 22.521946-21.104667 25.296129-31.358195 7.274684-51.517327 35.139312-49.071625 67.771523l9.205663 122.576733c2.384303 31.851429 26.406416 60.763922 58.44204 70.278623 10.43977 3.123131 18.041912 12.123109 19.357883 22.974247 0.164752 1.561565 0.287549 3.14462 0.410346 4.685719 0.062422 0.801249 0.062422 1.622964 0.205685 2.363837l41.674145 195.875133c9.617032 45.229111 56.797587 83.409688 103.034655 83.409688l320.260048 0c46.215578 0 93.397157-38.180578 103.034655-83.409688l41.652655-195.85569c0.165776-0.821715 0.165776-1.622964 0.227174-2.424212 0.102331-1.520633 0.226151-3.042289 0.410346-4.583388 1.274016-10.850116 8.898671-19.911492 19.379373-23.035646 32.015158-9.514701 56.037271-38.427194 58.420551-70.278623l9.187243-122.576733C906.446165 167.42543 886.266567 139.540336 854.949304 132.265652zM300.858674 413.256324l421.342234 0c10.151197 0 18.885116 3.759627 24.248264 10.233062 5.794983 6.67912 8.137331 15.823384 6.616698 25.749454-0.122797 0.656963-0.245593 1.314948-0.390903 1.971911l-33.103956 143.846152c-4.152577 22.685675-26.591635 41.632189-49.689702 41.632189L353.218182 636.689093c-23.097044 0-45.578058-18.946514-49.728588-41.632189l-33.084513-143.846152c-0.164752-0.656963-0.287549-1.314948-0.38988-1.971911-1.541099-9.925047 0.801249-19.069311 6.26775-25.358551C281.994024 417.016974 290.707476 413.256324 300.858674 413.256324zM356.608396 581.986213l309.863257 0 26.220175-114.028033L330.367755 467.95818 356.608396 581.986213zM267.917424 319.571618c-34.131355 0-61.811788-27.679409-61.811788-61.811788 0-34.151821 27.680433-61.811788 61.811788-61.811788 34.132378 0 61.792345 27.659967 61.792345 61.811788C329.709769 291.892209 302.049802 319.571618 267.917424 319.571618zM755.162624 319.571618c-34.132378 0-61.811788-27.679409-61.811788-61.811788 0-34.151821 27.679409-61.811788 61.811788-61.811788 34.151821 0 61.810764 27.659967 61.810764 61.811788C816.973388 291.892209 789.314445 319.571618 755.162624 319.571618z"  horiz-adv-x="1024" />

    
    <glyph glyph-name="wode" unicode="&#58954;" d="M509.546667 767.850667c48.512 0 116.245333-10.730667 163.434667-61.802667 37.290667-40.384 55.530667-99.669333 54.229333-176.234667-0.426667-24.341333 12.224-47.296 32.448-59.498667 2.944-2.773333 9.493333-18.965333 3.413333-44.053333-5.333333-22.229333-17.536-32.981333-20.416-34.048-23.424-3.2-43.242667-17.984-53.077333-39.445333-19.2-41.834667-45.077333-76.373333-74.837333-99.861333-5.290667-4.16-9.92-9.045333-13.76-14.549333-11.925333-17.045333-30.741333-50.666667-22.954667-84.522667l3.008-12.245333 6.656-9.856c11.2-16.490667 29.077333-27.242667 49.045333-29.504 17.493333-1.962667 79.424-9.962667 140.842667-30.122667 36.650667-12.010667 67.050667-26.24 90.368-42.282667 23.509333-16.192 39.338667-33.984 46.912-52.309333l0-19.925333-405.333333 0-405.333333 0 0 19.818667c7.872 18.773333 23.637333 36.373333 46.933333 52.416 23.317333 16.042667 53.717333 30.272 90.368 42.282667 61.397333 20.16 123.328 28.16 140.821333 30.122667 19.968 2.24 37.845333 12.992 48.938667 29.333333l7.125333 10.645333 2.709333 11.797333c7.744 33.685333-11.093333 67.306667-23.018667 84.352-3.84 5.504-8.469333 10.368-13.696 14.506667-29.802667 23.530667-55.68 58.069333-74.858667 99.882667-9.856 21.504-29.717333 36.245333-52.373333 39.296-3.605333 1.237333-15.808 11.989333-21.162667 34.218667-6.058667 25.088 0.490667 41.28 2.88 43.669333 20.778667 12.586667 33.429333 35.541333 33.002667 59.882667-1.301333 76.565333 16.938667 135.850667 54.250667 176.256C393.301333 757.12 461.034667 767.850667 509.546667 767.850667M509.546667 831.850667c-61.290667 0-147.562667-14.293333-210.432-82.389333-48.874667-52.885333-72.810667-127.146667-71.210667-220.736 0.021333-1.664-0.810667-3.221333-2.218667-4.074667-30.336-18.410667-43.712-64.448-31.914667-113.386667 10.773333-44.672 41.130667-77.952 73.984-82.474667 1.578667-0.213333 2.922667-1.237333 3.584-2.688 23.445333-51.072 55.594667-93.589333 93.376-123.434667 0.362667-0.277333 0.682667-0.576 0.938667-0.981333 7.701333-10.986667 14.677333-26.325333 13.077333-33.322667-0.042667-0.234667-0.170667-0.448-0.32-0.682667-0.725333-1.066667-1.941333-1.664-3.2-1.813333-22.954667-2.581333-87.744-11.264-153.664-32.896-42.432-13.952-78.336-30.890667-106.688-50.410667-36.48-25.109333-60.949333-54.784-72.704-88.277333l-0.085333-0.213333c-1.237333-3.733333-1.856-7.530667-1.856-11.264l0-49.6c0-21.845333 17.728-39.573333 39.594667-39.573333l429.738667 0 429.76 0c21.866667 0 39.573333 17.728 39.573333 39.573333l0 49.6c0 3.754667-0.618667 7.552-1.856 11.264l-0.085333 0.213333c-11.754667 33.472-36.224 63.168-72.704 88.277333-28.352 19.52-64.256 36.458667-106.688 50.410667-65.92 21.632-130.709333 30.314667-153.664 32.896-1.258667 0.149333-2.453333 0.746667-3.178667 1.813333-0.149333 0.234667-0.277333 0.448-0.32 0.682667-1.621333 6.976 5.376 22.336 13.056 33.322667 0.277333 0.405333 0.576 0.704 0.938667 0.981333 37.781333 29.845333 69.930667 72.384 93.376 123.434667 0.661333 1.450667 2.005333 2.474667 3.584 2.688 32.853333 4.522667 63.210667 37.802667 74.005333 82.474667 11.797333 48.96-1.578667 94.976-31.914667 113.386667-1.408 0.853333-2.24 2.410667-2.218667 4.074667 1.6 93.589333-22.336 167.829333-71.210667 220.736C657.109333 817.557333 570.837333 831.850667 509.546667 831.850667"  horiz-adv-x="1024" />

    
    <glyph glyph-name="wenjuandaan" unicode="&#58990;" d="M932 603.2 669.2 867.6C651.2 885.8 626.6 896 600.9 896L172 896C112.4 896 64 847.6 64 788l0-808c0-59.7 48.4-108 108-108l680 0c59.7 0 108 48.4 108 108L960 535.3C960 560.7 949.9 585.1 932 603.2zM896-20c0-24.3-19.7-44-44-44L172-64c-24.3 0-44 19.7-44 44L128 788c0 24.3 19.7 44 44 44l428.9 0c8.5 0 16.9-3.5 22.9-9.5l262.8-264.4c6.1-6.1 9.4-14.2 9.4-22.8L896-20zM709.5 497.3 418.2 206 259.8 364.4c-12.5 12.5-32.8 12.5-45.3 0-12.5-12.5-12.5-32.8 0-45.3l181-181c6-6 14.1-9.4 22.6-9.4s16.6 3.4 22.6 9.4l314 314c12.5 12.5 12.5 32.8 0 45.3C742.3 509.8 722 509.8 709.5 497.3z"  horiz-adv-x="1024" />

    
    <glyph glyph-name="shouji01" unicode="&#58914;" d="M700.462814 815.809633 322.790172 815.809633c-44.511773 0-80.929194-36.418444-80.929194-80.930217l0-701.393511c0-44.511773 36.417421-80.930217 80.929194-80.930217l377.672642 0c44.512796 0 80.930217 36.418444 80.930217 80.930217L781.393032 734.879416C781.393032 779.391189 744.975611 815.809633 700.462814 815.809633zM437.146687 774.819057l148.95859 0c7.355525 0 13.31833-5.962805 13.31833-13.31833 0-7.355525-5.961782-13.317307-13.31833-13.317307L437.146687 748.18342c-7.355525 0-13.317307 5.961782-13.317307 13.317307C423.82938 768.857275 429.791162 774.819057 437.146687 774.819057zM511.627005 6.508483c-29.797653 0-53.952796 24.157189-53.952796 53.954843 0 29.797653 24.155143 53.951773 53.952796 53.951773 29.79663 0 53.954843-24.15412 53.954843-53.951773C565.580824 30.666696 541.423635 6.508483 511.627005 6.508483zM727.440236 168.367895 295.813774 168.367895 295.813774 707.901994l431.626461 0L727.440236 168.367895z"  horiz-adv-x="1024" />

    
    <glyph glyph-name="zhuce" unicode="&#58925;" d="M722.6 250.705c17.497 26.999 9.793 63.072-17.206 80.567-21.997 14.255-45.104 26.406-69.045 36.377 69.66 51.387 114.937 134.006 114.937 227.013 0 155.467-126.483 281.951-281.951 281.951s-281.951-126.483-281.951-281.951c0-92.95 45.223-175.527 114.811-226.919-51.763-21.557-99.309-53.261-140.153-94.103-82.080-82.080-127.284-191.213-127.284-307.292 0-32.174 26.082-58.254 58.254-58.254s58.254 26.080 58.254 58.254c0 175.385 142.685 318.068 318.068 318.068 61.579 0 121.298-17.606 172.699-50.915 27.002-17.498 63.074-9.793 80.567 17.206zM469.334 760.103c91.225 0 165.442-74.218 165.442-165.442s-74.218-165.442-165.442-165.442c-91.225 0-165.442 74.217-165.442 165.442s74.218 165.442 165.442 165.442zM926.63 152.803h-66.992v66.992c0 32.174-26.080 58.254-58.254 58.254s-58.254-26.080-58.254-58.254v-66.992h-66.992c-32.174 0-58.254-26.080-58.254-58.254s26.080-58.254 58.254-58.254h66.992v-66.992c0-32.174 26.080-58.254 58.254-58.254s58.254 26.080 58.254 58.254v66.992h66.992c32.174 0 58.254 26.080 58.254 58.254s-26.080 58.254-58.254 58.254z"  horiz-adv-x="1024" />

    
    <glyph glyph-name="shouyeshouye" unicode="&#58880;" d="M921.764 377.116l-412.854 386.018-412.854-384.884c-8.077-7.53-8.527-20.193-0.979-28.261 7.54-8.063 20.218-8.518 28.289-0.971l385.514 359.379 385.531-360.473c3.868-3.614 8.778-5.4 13.678-5.4 5.335 0 10.673 2.119 14.61 6.336 7.555 8.063 7.139 20.714-0.936 28.256l0 0zM921.764 377.116zM795.781 369.187c-11.05 0-20.015-8.959-20.015-19.995l0-306.597-160.123 0 0 213.284-213.495 0 0-213.284-160.118 0 0 306.597c0 11.036-8.955 19.995-20.014 19.995-11.065 0-20.018-8.959-20.018-19.995l0-346.586 240.183 0 0 213.283 133.434 0 0-213.283 240.177 0 0 346.586c0.001 11.036-8.965 19.995-20.011 19.995l0 0zM795.781 369.187zM655.677 655.786l120.089 0 0-106.64c0-11.053 8.965-20 20.015-20 11.047 0 20.012 8.947 20.012 20l0 146.629-160.117 0c-11.053 0-20.018-8.942-20.018-19.995-0.001-11.049 8.965-19.995 20.018-19.995l0 0zM655.677 655.786z"  horiz-adv-x="1024" />

    
    <glyph glyph-name="mima" unicode="&#58884;" d="M512 325.504a58.496 58.496 0 0 1-38.976-102.08v-53.888a38.976 38.976 0 1 1 77.952 0v53.888a58.304 58.304 0 0 1 19.456 43.584A58.368 58.368 0 0 1 512 325.504z m272.896 175.424h-38.976V598.4a233.856 233.856 0 0 1-467.712 0v-97.408h-39.04c-53.824 0-97.408-43.648-97.408-97.408v-370.304c0-53.824 43.648-97.408 97.408-97.408h545.728c53.76 0 97.344 43.648 97.344 97.408V403.52c0 53.824-43.584 97.408-97.344 97.408zM512 793.28a194.88 194.88 0 0 0 194.88-194.88v-97.408h-389.76V598.4A194.944 194.944 0 0 0 512 793.28z m331.392-760.064c0-32.32-26.24-58.432-58.496-58.432H239.168a58.496 58.496 0 0 0-58.496 58.432V403.52c0 32.256 26.176 58.496 58.496 58.496h545.728c32.256 0 58.496-26.176 58.496-58.496v-370.304z m0 0"  horiz-adv-x="1024" />

    
    <glyph glyph-name="qianbao" unicode="&#58886;" d="M959.104 43.327v-0.005c0-58.886-47.734-106.62-106.615-106.62l-0.005-0.006H170.09c-0.005 0-0.005 0.006-0.01 0.006-58.88 0-106.615 47.734-106.615 106.624V683.068c0 47.108 38.189 85.297 85.303 85.297h344.83l87.397 62.575c10.956 3.976 23.066-1.656 27.052-12.573l18.181-50h162.287c47.104 0 85.293-38.19 85.293-85.303v-63.972h0.005c47.108 0 85.297-38.188 85.297-85.301l-0.006-490.464z m-810.336 682.39h-0.005c-23.555 0-42.65-40.42-42.65-63.975s19.095-42.65 42.655-42.65h30.817-21.326 4.039c0.274 0.113 0.45 0.343 0.733 0.45l255.506 106.175h-269.77z m449.475-3.85l-22.64 62.354-0.03-21.336-0.005 0.005-75.954-37.173h-0.19L264.008 619.09h385.173l-50.938 102.776z m232.92-38.804c0 23.559-19.1 42.654-42.649 42.654H641.737l52.335-106.625h137.091v63.971z m42.649-106.625H148.768c-0.01 0-0.01 0.01-0.016 0.01-15.616 0-30.05 4.503-42.639 11.826v-544.952c0-35.332 28.646-63.97 63.977-63.97h682.39c35.337 0 63.975 28.64 63.975 63.97V192.6h-85.298c-47.108 0-85.297 38.183-85.297 85.297 0 47.104 38.189 85.298 85.297 85.298h85.298V533.791c0 23.557-19.094 42.647-42.643 42.647z m42.643-341.19v85.298h-85.298c-23.554 0-42.648-19.094-42.648-42.649 0-23.56 19.094-42.649 42.648-42.649h85.298z m-85.298 63.975h42.65v-42.648h-42.65v42.648z m0 0"  horiz-adv-x="1024" />

    
    <glyph glyph-name="wenti" unicode="&#59222;" d="M641.969231 600.615385c27.569231-27.569231 43.323077-63.015385 43.323077-110.276923 0-35.446154-11.815385-66.953846-31.507693-90.584616-7.876923-7.876923-27.569231-31.507692-63.015384-59.076923-15.753846-15.753846-27.569231-27.569231-35.446154-43.323077-11.815385-15.753846-15.753846-35.446154-15.753846-59.076923v-19.692308h-63.015385v19.692308c0 27.569231 3.938462 47.261538 15.753846 66.953846 11.815385 23.630769 35.446154 55.138462 78.769231 90.584616l27.569231 27.56923c15.753846 19.692308 23.630769 39.384615 23.630769 63.015385 0 31.507692-7.876923 55.138462-27.569231 74.830769-19.692308 19.692308-43.323077 27.569231-78.76923 27.569231-39.384615 0-66.953846-11.815385-86.646154-39.384615-15.753846-23.630769-27.569231-51.2-27.569231-90.584616H338.707692c0 55.138462 15.753846 98.461538 47.261539 133.907693 31.507692 35.446154 74.830769 51.2 133.907692 51.2 51.2 0 90.584615-15.753846 122.092308-43.323077zM543.507692 147.692308c7.876923-7.876923 11.815385-19.692308 11.815385-31.507693 0-15.753846-3.938462-23.630769-15.753846-35.446153-7.876923-7.876923-19.692308-11.815385-35.446154-11.815385-11.815385 0-23.630769 3.938462-35.446154 11.815385-7.876923 7.876923-11.815385 19.692308-11.815385 35.446153 0 11.815385 3.938462 23.630769 11.815385 31.507693 7.876923 7.876923 19.692308 11.815385 35.446154 11.815384 15.753846 3.938462 27.569231 0 39.384615-11.815384zM512 856.615385c259.938462 0 472.615385-212.676923 472.615385-472.615385s-212.676923-472.615385-472.615385-472.615385S39.384615 124.061538 39.384615 384 252.061538 856.615385 512 856.615385m0 39.384615C228.430769 896 0 667.569231 0 384s228.430769-512 512-512 512 228.430769 512 512S795.569231 896 512 896z"  horiz-adv-x="1024" />

    
    <glyph glyph-name="xiaoqiche" unicode="&#58911;" d="M248.685714 460.068571h533.942857c90.697143 0 163.84-73.142857 163.84-163.84v-163.84h-863.085714V294.765714c0 90.697143 74.605714 165.302857 165.302857 165.302857zM956.708571 120.685714H73.142857V294.765714c0 96.548571 78.994286 174.08 174.08 174.08h533.942857c96.548571 0 174.08-78.994286 174.08-174.08V120.685714z m-863.085714 20.48H936.228571V294.765714c0 84.845714-68.754286 153.6-153.6 153.6H248.685714c-84.845714 0-153.6-68.754286-153.6-153.6v-153.6zM430.08 130.925714H83.382857v100.937143c23.405714 76.068571 90.697143 130.194286 169.691429 130.194286 99.474286 0 179.931429-84.845714 179.931428-190.171429 1.462857-14.628571 0-27.794286-2.925714-40.96zM438.857143 120.685714H73.142857v114.102857c26.331429 81.92 98.011429 137.508571 179.931429 137.508572 105.325714 0 190.171429-90.697143 190.171428-201.874286 0-14.628571-1.462857-27.794286-4.388571-42.422857v-7.314286zM93.622857 141.165714h326.217143c1.462857 10.24 2.925714 20.48 2.925714 29.257143 0 99.474286-76.068571 179.931429-169.691428 179.931429-71.68 0-136.045714-48.274286-159.451429-121.417143v-87.771429zM946.468571 269.897143v-138.971429H596.845714c-2.925714 13.165714-4.388571 26.331429-4.388571 39.497143C592.457143 281.6 677.302857 369.371429 781.165714 369.371429c71.68 0 131.657143-39.497143 165.302857-99.474286zM956.708571 120.685714H588.068571l-1.462857 8.777143c-2.925714 13.165714-4.388571 27.794286-4.388571 42.422857 0 115.565714 89.234286 209.188571 198.948571 209.188572 71.68 0 137.508571-40.96 174.08-105.325715l1.462857-2.925714V120.685714z m-351.085714 20.48H936.228571V266.971429c-32.182857 57.051429-90.697143 92.16-153.6 92.16-98.011429 0-178.468571-84.845714-178.468571-188.708572-1.462857-8.777143 0-19.017143 1.462857-29.257143zM83.382857 202.605714h861.622857v-71.68H83.382857zM956.708571 120.685714H73.142857v92.16h883.565714V120.685714z m-863.085714 20.48H936.228571v51.2H93.622857v-51.2zM490.057143 701.44c152.137143 0 285.257143-106.788571 307.2-242.834286H247.222857c-8.777143 0-17.554286 0-26.331428-1.462857 0 136.045714 117.028571 244.297143 269.165714 244.297143zM210.651429 445.44V457.142857c0 64.365714 24.868571 125.805714 71.68 172.617143 52.662857 52.662857 127.268571 81.92 207.725714 81.92 155.062857 0 295.497143-109.714286 317.44-251.611429l1.462857-13.165714-13.165714 1.462857H247.222857c-8.777143 0-16.091429 0-24.868571-1.462857l-11.702857-1.462857zM490.057143 691.2c-76.068571 0-144.822857-26.331429-193.097143-76.068571-39.497143-39.497143-62.902857-90.697143-64.365714-146.285715H785.554286C757.76 594.651429 631.954286 691.2 490.057143 691.2zM747.52 458.605714H263.314286c24.868571 106.788571 115.565714 184.32 229.668571 184.32 114.102857 0 215.04-77.531429 254.537143-184.32zM762.148571 448.365714h-512l2.925715 13.165715c26.331429 115.565714 122.88 191.634286 239.908571 191.634285 115.565714 0 222.354286-76.068571 264.777143-191.634285l4.388571-13.165715z m-485.668571 20.48H731.428571C690.468571 568.32 595.382857 632.685714 492.982857 632.685714s-187.245714-64.365714-216.502857-163.84zM469.577143 458.605714h-43.885714v175.542857c13.165714 4.388571 27.794286 7.314286 43.885714 8.777143v-184.32zM479.817143 448.365714h-64.365714V641.462857l7.314285 1.462857c14.628571 4.388571 29.257143 7.314286 45.348572 8.777143l11.702857 1.462857v-204.8z m-42.422857 20.48h21.942857v160.914286l-21.942857-4.388571v-156.525715zM264.777143 66.56c57.051429 0 103.862857 46.811429 103.862857 103.862857s-46.811429 103.862857-103.862857 103.862857c-57.051429 0-103.862857-46.811429-103.862857-103.862857s46.811429-103.862857 103.862857-103.862857zM264.777143 56.32c-62.902857 0-114.102857 51.2-114.102857 114.102857s51.2 114.102857 114.102857 114.102857 114.102857-51.2 114.102857-114.102857-51.2-114.102857-114.102857-114.102857z m0 209.188571c-51.2 0-93.622857-42.422857-93.622857-93.622857 0-51.2 42.422857-93.622857 93.622857-93.622857s93.622857 42.422857 93.622857 93.622857c0 51.2-42.422857 93.622857-93.622857 93.622857zM264.777143 170.422857m-49.737143 0a49.737143 49.737143 0 1 1 99.474286 0 49.737143 49.737143 0 1 1-99.474286 0ZM264.777143 111.908571c-32.182857 0-59.977143 26.331429-59.977143 59.977143 0 32.182857 26.331429 59.977143 59.977143 59.977143 32.182857 0 59.977143-26.331429 59.977143-59.977143s-27.794286-59.977143-59.977143-59.977143z m0 98.011429c-21.942857 0-39.497143-17.554286-39.497143-39.497143 0-21.942857 17.554286-39.497143 39.497143-39.497143 21.942857 0 39.497143 17.554286 39.497143 39.497143-1.462857 21.942857-17.554286 39.497143-39.497143 39.497143zM773.851429 66.56c57.051429 0 103.862857 46.811429 103.862857 103.862857s-46.811429 103.862857-103.862857 103.862857c-57.051429 0-103.862857-46.811429-103.862858-103.862857s45.348571-103.862857 103.862858-103.862857zM773.851429 56.32c-62.902857 0-114.102857 51.2-114.102858 114.102857s51.2 114.102857 114.102858 114.102857 114.102857-51.2 114.102857-114.102857-51.2-114.102857-114.102857-114.102857z m0 209.188571c-51.2 0-93.622857-42.422857-93.622858-93.622857 0-51.2 42.422857-93.622857 93.622858-93.622857 51.2 0 93.622857 42.422857 93.622857 93.622857 0 51.2-42.422857 93.622857-93.622857 93.622857zM773.851429 170.422857m-49.737143 0a49.737143 49.737143 0 1 1 99.474285 0 49.737143 49.737143 0 1 1-99.474285 0ZM773.851429 111.908571c-32.182857 0-59.977143 26.331429-59.977143 59.977143 0 32.182857 26.331429 59.977143 59.977143 59.977143 32.182857 0 59.977143-26.331429 59.977142-59.977143-1.462857-33.645714-27.794286-59.977143-59.977142-59.977143z m0 98.011429c-21.942857 0-39.497143-17.554286-39.497143-39.497143 0-21.942857 17.554286-39.497143 39.497143-39.497143 21.942857 0 39.497143 17.554286 39.497142 39.497143-1.462857 21.942857-19.017143 39.497143-39.497142 39.497143zM449.097143 250.88c-5.851429 0-10.24 4.388571-10.24 10.24v144.822857c0 5.851429 4.388571 10.24 10.24 10.24s10.24-4.388571 10.24-10.24v-144.822857c0-5.851429-4.388571-10.24-10.24-10.24zM661.211429 499.565714h76.068571c7.314286 0 14.628571-5.851429 14.628571-14.628571v-36.571429c0-7.314286-5.851429-14.628571-14.628571-14.628571h-76.068571c-7.314286 0-14.628571 5.851429-14.628572 14.628571V486.4c0 7.314286 7.314286 13.165714 14.628572 13.165714zM737.28 424.96h-76.068571c-13.165714 0-24.868571 11.702857-24.868572 24.868571V486.4c0 13.165714 11.702857 24.868571 24.868572 24.868571h76.068571c13.165714 0 24.868571-11.702857 24.868571-24.868571v-36.571429c0-13.165714-11.702857-24.868571-24.868571-24.868571z m-76.068571 64.365714c-2.925714 0-4.388571-1.462857-4.388572-4.388571v-36.571429c0-2.925714 1.462857-4.388571 4.388572-4.388571h76.068571c2.925714 0 4.388571 1.462857 4.388571 4.388571V486.4c0 2.925714-1.462857 4.388571-4.388571 4.388571h-76.068571zM43.885714 206.994286h71.68v-32.182857H43.885714zM117.028571 164.571429H43.885714c-5.851429 0-10.24 4.388571-10.24 10.24v32.182857c0 5.851429 4.388571 10.24 10.24 10.24h73.142857c5.851429 0 10.24-4.388571 10.24-10.24v-32.182857c0-5.851429-5.851429-10.24-10.24-10.24z m-62.902857 20.48h51.2v11.702857H54.125714v-11.702857zM896.731429 285.988571h64.365714c10.24 0 19.017143-8.777143 19.017143-19.017142v-10.24c0-10.24-8.777143-19.017143-19.017143-19.017143h-64.365714c-10.24 0-19.017143 8.777143-19.017143 19.017143V266.971429c0 11.702857 8.777143 19.017143 19.017143 19.017142zM961.097143 227.474286h-64.365714c-16.091429 0-29.257143 13.165714-29.257143 29.257143V266.971429c0 16.091429 13.165714 29.257143 29.257143 29.257142h64.365714c16.091429 0 29.257143-13.165714 29.257143-29.257142v-10.24c0-16.091429-13.165714-29.257143-29.257143-29.257143z m-64.365714 48.274285c-4.388571 0-8.777143-4.388571-8.777143-8.777142v-10.24c0-4.388571 4.388571-8.777143 8.777143-8.777143h64.365714c4.388571 0 8.777143 4.388571 8.777143 8.777143V266.971429c0 4.388571-4.388571 8.777143-8.777143 8.777142h-64.365714zM934.765714 335.725714m-32.182857 0a32.182857 32.182857 0 1 1 64.365714 0 32.182857 32.182857 0 1 1-64.365714 0ZM934.765714 293.302857c-23.405714 0-42.422857 19.017143-42.422857 42.422857 0 23.405714 19.017143 42.422857 42.422857 42.422857s42.422857-19.017143 42.422857-42.422857c1.462857-23.405714-19.017143-42.422857-42.422857-42.422857z m0 64.365714c-11.702857 0-21.942857-10.24-21.942857-21.942857s10.24-21.942857 21.942857-21.942857 21.942857 10.24 21.942857 21.942857-8.777143 21.942857-21.942857 21.942857zM507.611429 534.674286c-2.925714 0-5.851429 1.462857-7.314286 2.925714-4.388571 4.388571-4.388571 10.24 0 14.628571l46.811428 46.811429c4.388571 4.388571 10.24 4.388571 14.628572 0 4.388571-4.388571 4.388571-10.24 0-14.628571l-46.811429-46.811429c-1.462857-2.925714-4.388571-2.925714-7.314285-2.925714zM514.925714 480.548571c-2.925714 0-5.851429 1.462857-7.314285 2.925715-4.388571 4.388571-4.388571 10.24 0 14.628571l84.845714 87.771429c4.388571 4.388571 10.24 4.388571 14.628571 0 4.388571-4.388571 4.388571-10.24 0-14.628572l-84.845714-87.771428c-1.462857-2.925714-4.388571-2.925714-7.314286-2.925715z"  horiz-adv-x="1024" />

    
    <glyph glyph-name="shangjiantou" unicode="&#58883;" d="M948.757 422.694L512.709-39.643 76.662 422.694zM75.234 494.173c0.454-0.069 0.977-0.069 1.431 0h872.107c28.518 0 54.35-16.965 65.625-43.145a71.548 71.548 0 0 0-13.615-77.424L564.728-88.7c-27.018-28.623-77.005-28.623-104.021 0L32.333 365.506c-17.349 13.055-28.588 33.79-28.588 57.178 0 39.515 32.01 71.489 71.489 71.489zM783.07 351.196H242.365l270.352-286.654 270.352 286.654z"  horiz-adv-x="1024" />

    
    <glyph glyph-name="huiyuan" unicode="&#58927;" d="M967.83024 51.2l-172.8 329.6c6.4 9.6 12.8 19.2 16 28.8l3.2 3.2c6.4 12.8 12.8 25.6 16 38.4l3.2 9.6c9.6 32 16 64 16 96C846.23024 745.6 695.83024 896 516.63024 896 334.23024 896 187.03024 745.6 187.03024 560c0-60.8 16-121.6 48-176L55.83024 51.2c-6.4-12.8-6.4-25.6 3.2-35.2 6.4-9.6 22.4-16 35.2-12.8l137.6 38.4 51.2-144c3.2-12.8 16-22.4 28.8-22.4h3.2c12.8 0 22.4 6.4 28.8 16l169.6 316.8 169.6-316.8c6.4-9.6 16-16 28.8-16h3.2c12.8 0 25.6 9.6 28.8 22.4l51.2 144 137.6-38.4h9.6c9.6 0 19.2 3.2 25.6 12.8 6.4 9.6 6.4 22.4 0 35.2M276.63024 326.4c44.8-48 105.6-83.2 169.6-96l-128-240-35.2 102.4c-3.2 12.8-16 22.4-32 22.4h-9.6l-92.8-25.6 128 236.8z m492.8 163.2c-3.2-9.6-6.4-16-9.6-25.6-3.2-9.6-6.4-16-9.6-25.6l-3.2-6.4c-19.2-38.4-57.6-96-124.8-131.2l-3.2-3.2c-9.6-3.2-16-6.4-22.4-6.4-19.2-3.2-38.4-3.2-64-3.2h-19.2c-144 0-262.4 121.6-262.4 268.8 0 150.4 118.4 268.8 262.4 268.8 144 0 262.4-121.6 262.4-268.8 3.2-22.4 0-48-6.4-67.2m-70.4-214.4s3.2 3.2 9.6 6.4h3.2v3.2c9.6 9.6 22.4 19.2 35.2 35.2l124.8-233.6-92.8 25.6c-16 3.2-35.2-6.4-38.4-22.4l-35.2-102.4-128 236.8c48 9.6 96 28.8 121.6 51.2z m0 0M651.03024 649.6H564.63024V448h48v67.2h35.2c60.8 0 73.6 38.4 76.8 67.2 0 32-16 64-73.6 67.2M615.83024 608h32c25.6 0 28.8-12.8 32-22.4 0-12.8-3.2-25.6-28.8-25.6h-32V608zM500.63024 649.6h-48l-3.2-6.4c-25.6-70.4-38.4-108.8-44.8-131.2-9.6 25.6-25.6 67.2-48 131.2l-3.2 6.4H302.23024l80-198.4h44.8l76.8 192v-192h48V649.6H500.63024z m0 0"  horiz-adv-x="1024" />

    
    <glyph glyph-name="weibiaoti-" unicode="&#58893;" d="M381.155556 782.222222L199.111111-14.222222h386.844445L768 782.222222zM913.066667 782.222222H824.888889l-182.044445-796.444444h270.222223c45.511111 0 82.488889 36.977778 82.488889 82.488889V699.733333C995.555556 745.244444 958.577778 782.222222 913.066667 782.222222zM110.933333 782.222222C65.422222 782.222222 28.444444 745.244444 28.444444 699.733333v-631.466666C28.444444 22.755556 65.422222-14.222222 110.933333-14.222222h34.133334l182.044444 796.444444H110.933333z"  horiz-adv-x="1024" />

    
    <glyph glyph-name="xinxi" unicode="&#58923;" d="M688.469333 126.29333299999996H921.6V673.314133H238.933333v-547.0208h233.130667L580.266667 17.954132999999956l108.202666 108.3392zM238.933333 741.5808h682.666667a68.266667 68.266667 0 0 0 68.266667-68.266667v-547.0208a68.266667 68.266667 0 0 0-68.266667-68.266666h-204.8l-136.533333-136.669867-136.533334 136.669867H238.933333a68.266667 68.266667 0 0 0-68.266666 68.266666V673.314133a68.266667 68.266667 0 0 0 68.266666 68.266667zM785.066667 673.245867h-68.266667V809.984H102.4v-478.549333h136.533333v-68.266667H102.4a68.266667 68.266667 0 0 0-68.266667 68.266667V809.984a68.266667 68.266667 0 0 0 68.266667 68.266667h614.4a68.266667 68.266667 0 0 0 68.266667-68.266667v-136.738133zM785.066667 332.11733300000003H375.466667v-68.266666h409.6v68.266666z m-409.6 136.533334h409.6v68.266666H375.466667v-68.266666z"  horiz-adv-x="1024" />

    
    <glyph glyph-name="nianling" unicode="&#58894;" d="M511.645-122.619c-68.295 0-134.565 13.383-196.968 39.777-60.258 25.486-114.368 61.967-160.828 108.427-46.459 46.46-82.94 100.57-108.427 160.828C19.028 248.815 5.645 315.085 5.645 383.381c0 68.295 13.383 134.565 39.777 196.968 25.487 60.258 61.967 114.369 108.427 160.829 46.46 46.459 100.57 82.939 160.828 108.427C377.08 875.998 443.349 889.381 511.645 889.381c68.296 0 134.565-13.383 196.968-39.777C768.87 824.117 822.98 787.637 869.44 741.177c46.46-46.46 82.94-100.571 108.427-160.829 26.395-62.402 39.777-128.672 39.777-196.968 0-68.296-13.383-134.565-39.777-196.968-25.486-60.257-61.967-114.367-108.427-160.827s-100.57-82.94-160.828-108.427c-62.402-26.394-128.672-39.777-196.967-39.777z m0 948c-243.719 0-442-198.28-442-442s198.28-442 442-442 442 198.28 442 442-198.281 442-442 442zM340.455 554.571l-82.425-34.583v48.417l130.843 55.334V204.12h76.084v-48.417H263.793V204.12h76.661l0.001 350.451zM564.098 187.406c-23.057 27.278-34.584 65.133-34.584 113.55 0.379 41.113 14.021 72.627 40.925 94.529 2.684 2.306 5.377 4.225 8.069 5.765l-3.459 3.458c-22.291 20.75-33.432 49.76-33.432 87.036 0 42.267 9.988 75.509 29.973 99.717 22.281 25.74 51.488 38.619 87.613 38.619 35.35 0 64.17-12.879 86.459-38.619 20.752-24.596 31.127-57.838 31.127-99.717 0-37.276-10.953-65.709-32.855-85.307-2.692-1.929-4.809-3.656-6.34-5.188 3.457-1.928 6.529-4.035 9.224-6.341 28.045-21.903 42.075-53.228 42.075-93.953-0.387-47.265-11.149-83.775-32.276-109.516-23.058-28.045-55.533-42.077-97.412-42.077-42.277 0.001-73.978 12.682-95.107 38.044z m95.105 188.482c-22.291 0-41.5-5.962-57.641-17.868-15.761-13.454-23.632-32.477-23.632-57.063 0-31.125 7.683-57.262 23.056-78.39 13.059-16.526 32.469-24.785 58.217-24.785 26.514 0 46.301 9.187 59.369 27.577 14.6 19.146 21.901 44.237 21.901 75.265 0 24.515-8.268 43.086-24.784 55.73-16.912 13.023-35.736 19.534-56.486 19.534z m51.875 181.08c-12.301 16.076-29.594 24.118-51.875 24.118-23.057 0-40.348-7.664-51.875-22.975-11.529-16.085-17.293-38.097-17.293-66.034 0-20.678 6.34-36.952 19.021-48.813 12.293-11.87 29.011-17.806 50.146-17.806 19.977 0 36.313 5.936 48.994 17.806 13.444 12.249 20.174 28.324 20.174 48.237 0.001 28.325-5.763 50.146-17.292 65.467z"  horiz-adv-x="1024" />

    
    <glyph glyph-name="xianshitejia" unicode="&#58968;" d="M566.137263 599.578947h50.849684v-76.934736h-50.849684zM350.989474 716.934737h95.178105V680.421053h-95.178105zM350.989474 653.042526h95.178105v-36.513684h-95.178105zM566.137263 706.506105h50.849684v-76.934737h-50.849684zM53.894737 896v-1024l458.105263 107.789474 458.105263-107.789474V896H53.894737z m145.839158-147.779368h100.405894v-31.285895l-24.764631-86.069895c18.243368-24.333474 26.947368-50.418526 26.085053-78.22821 0.862316-34.762105-11.749053-53.032421-37.807158-54.757053a133.712842 133.712842 0 0 0-20.857264-1.293474 41.822316 41.822316 0 0 0-2.613894 7.814737 165.618526 165.618526 0 0 1-7.814737 26.085053h19.563789c13.042526-0.862316 19.563789 8.704 19.56379 28.672 0.862316 20.857263-7.814737 42.603789-26.085053 65.185684l24.764632 92.56421H231.019789v-267.290947H199.733895V748.220632z m75.641263-518.952421v-113.448422h-32.606316v105.606737c-16.518737-5.227789-33.899789-10.428632-52.170105-15.656421l-2.613895 36.513684a87.04 87.04 0 0 0 11.749053 2.613895c9.566316 1.751579 23.902316 5.227789 43.034947 10.428632v70.413473H218.004211c-2.613895-15.656421-5.658947-30.423579-9.135158-44.328421l-23.471158 7.814737c8.704 30.423579 14.336 66.937263 16.949894 109.514106l24.764632-2.613895c-0.862316-5.227789-1.751579-12.611368-2.613895-22.177684-1.724632-7.814737-2.613895-13.904842-2.613894-18.243369h20.857263v71.706948h32.606316v-71.706948h28.672v-29.992421H275.375158v-62.598737l28.672 7.814737c0-13.042526 0.431158-23.902316 1.293474-32.606316l-29.965474-9.054315z m45.621895-27.378527l22.177684 18.243369a498.795789 498.795789 0 0 0 43.034947-43.034948l-26.085052-19.563789a308.682105 308.682105 0 0 1-39.127579 44.355368z m179.954526 23.471158h-37.807158v-65.185684c0.862316-26.947368-12.611368-40.421053-40.421053-40.421053a829.978947 829.978947 0 0 0-45.648842-1.293473 1801.512421 1801.512421 0 0 1-3.907368 22.177684 78.039579 78.039579 0 0 1-2.613895 11.722105c7.814737-0.862316 19.994947-1.293474 36.513684-1.293474 15.656421-0.862316 23.04 5.200842 22.177685 18.243369v56.077473H311.861895v29.992422h117.355789v24.764631h33.89979v-24.764631h37.807158v-30.019369z m1.293474 65.185684H309.274947v29.992421h78.228211v37.807158H322.317474v29.992421h65.185684v39.127579h33.899789v-39.127579h67.799579v-29.992421h-67.799579v-37.807158h80.842106v-29.992421z m-15.656421 165.591579c-59.984842 25.195789-97.360842 68.661895-112.128 130.398316h-23.471158v-93.884632c2.613895 0.862316 7.383579 2.613895 14.336 5.22779 6.090105 3.476211 18.243368 8.704 36.513684 15.656421 0-4.338526 0.431158-10.859789 1.293474-19.563789v-11.722106c-7.814737-2.613895-19.994947-7.383579-36.513685-14.336-7.814737-2.613895-13.473684-4.769684-16.949894-6.521263-0.862316 0-1.724632-0.431158-2.613895-1.293474a114.822737 114.822737 0 0 1-20.857263-10.428631l-16.949895 27.378526a29.911579 29.911579 0 0 1 10.428632 26.085053V746.927158h157.776842v-160.390737h-70.413474c5.200842-16.518737 11.290947-30.854737 18.243368-43.034947a570.475789 570.475789 0 0 1 53.463579 36.513684l19.56379-24.764632-19.56379-11.722105c-15.656421-9.566316-27.378526-16.949895-35.193263-22.177684 13.904842-13.904842 34.330947-25.653895 61.278316-35.220211-6.925474-10.428632-13.015579-20.426105-18.243368-29.992421z m176.047157 241.232842h104.313264V761.263158h33.899789v-63.892211h36.513684v-32.606315h-36.513684v-161.684211c0.862316-32.175158-14.767158-48.235789-46.942316-48.235789h-52.170105c-2.613895 11.290947-5.658947 22.177684-9.135158 32.606315h46.942316c19.132632 0 28.240842 8.704 27.378526 26.085053V664.764632h-104.286316v32.606315z m10.428632-83.456a61.844211 61.844211 0 0 0-5.227789 7.814737l27.378526 15.656421c3.476211-6.090105 9.135158-15.225263 16.949895-27.378526 12.180211-19.132632 21.288421-33.899789 27.378526-44.328421l-29.992421-18.243369c-8.677053 16.491789-20.857263 38.669474-36.486737 66.479158z m-139.533474 123.877053h116.062316v-267.290947h-32.606316v20.857263h-50.849684v-24.764632h-32.606316V737.792z m59.984842-620.651789h-33.899789v165.591578a1423.548632 1423.548632 0 0 0-29.992421-46.942315 344.198737 344.198737 0 0 1-5.200842 26.085052 644.850526 644.850526 0 0 0-3.907369 20.857263c26.947368 43.466105 48.235789 91.701895 63.892211 144.734316l33.899789-9.135158c-7.814737-24.333474-16.087579-46.942316-24.764631-67.799579v-233.391157z m45.648843-2.613895a973.338947 973.338947 0 0 1-28.698948 24.764631c33.899789 23.471158 49.556211 62.140632 46.942316 116.035369v40.421052h35.220211v-41.714526c2.586947-61.709474-15.225263-108.220632-53.463579-139.506526z m146.027789 6.521263h-36.513684v174.726737h36.513684v-174.726737z m37.807158 165.591579c-44.328421 26.085053-77.365895 57.370947-99.085474 93.884631-20.857263-33.899789-54.325895-66.074947-100.405894-96.498526l-11.722106 19.56379a87.713684 87.713684 0 0 1-6.521263 13.042526c50.418526 29.561263 85.180632 66.506105 104.313263 110.834526l40.421053-3.907368a30.531368 30.531368 0 0 1-5.200842-7.814737 14.336 14.336 0 0 0-2.613895-5.227789c25.222737-39.127579 57.370947-69.093053 96.498526-89.977264-6.117053-11.290947-11.317895-22.608842-15.683368-33.899789zM478.773895 543.501474l19.563789 11.722105-19.563789 24.764632a570.475789 570.475789 0 0 0-53.463579-36.513685 220.294737 220.294737 0 0 0-18.243369 43.034948h70.413474V746.927158H319.703579v-243.81979a29.911579 29.911579 0 0 0-10.428632-26.085052l16.949895-27.378527c5.200842 3.476211 12.180211 6.952421 20.857263 10.428632 0.862316 0.862316 1.751579 1.293474 2.613895 1.293474 3.476211 1.751579 9.135158 3.907368 16.949895 6.521263a577.859368 577.859368 0 0 0 36.513684 14.336v11.722105a217.573053 217.573053 0 0 0-1.293474 19.56379c-18.243368-6.952421-30.423579-12.180211-36.513684-15.656421-6.952421-2.613895-11.722105-4.338526-14.336-5.22779v93.884632h23.471158c14.767158-61.709474 52.143158-105.175579 112.128-130.398316 5.227789 9.566316 11.290947 19.563789 18.243368 29.992421-26.947368 9.566316-47.373474 21.288421-61.278315 35.22021 7.814737 5.227789 19.563789 12.611368 35.193263 22.177685z m-127.784421 173.433263h95.178105V680.421053h-95.178105V716.934737z m0-100.405895V653.042526h95.178105v-36.513684h-95.178105zM231.019789 716.934737h39.127579l-24.764631-92.564211c18.243368-22.608842 26.947368-44.328421 26.085052-65.185684 0-19.994947-6.521263-29.561263-19.563789-28.672h-19.563789c2.613895-6.090105 5.200842-14.767158 7.814736-26.085053 0.862316-3.476211 1.724632-6.090105 2.613895-7.814736 8.704 0 15.656421 0.431158 20.857263 1.293473 26.085053 1.724632 38.696421 19.994947 37.807158 54.757053 0.862316 27.809684-7.814737 53.894737-26.085052 78.22821l24.764631 86.042948V748.220632H199.733895v-298.60379h31.285894v267.317895zM421.402947 358.346105h67.799579v29.992421h-67.799579v39.127579H387.503158v-39.127579H322.317474v-29.992421h65.185684v-37.807158H309.274947v-29.992421h192.970106v29.992421h-80.842106zM275.375158 263.168v62.598737h28.672v29.992421H275.375158v71.706947h-32.606316v-71.706947h-20.857263c0 4.338526 0.862316 10.428632 2.613895 18.243368 0.862316 9.566316 1.751579 16.949895 2.613894 22.177685l-24.764631 2.613894c-2.613895-42.603789-8.245895-79.090526-16.949895-109.514105l23.471158-7.814737c3.476211 13.904842 6.521263 28.672 9.135158 44.328421h24.764631v-70.413473a551.073684 551.073684 0 0 0-43.034947-10.428632 79.386947 79.386947 0 0 1-11.749053-2.613895l2.613895-36.513684a1895.343158 1895.343158 0 0 1 52.170105 15.656421v-105.606737h32.606316v113.448421l29.992421 9.135158a340.237474 340.237474 0 0 0-1.293473 32.606316l-28.725895-7.895579zM463.144421 280.117895h-33.899789v-24.764632H311.861895v-29.992421h117.355789v-56.077474c0.862316-13.042526-6.521263-19.132632-22.177684-18.243368-16.518737 0-28.698947 0.431158-36.513684 1.293474 0.862316-2.613895 1.724632-6.521263 2.613895-11.722106 1.751579-9.566316 3.045053-16.949895 3.907368-22.177684 14.767158 0 29.992421 0.431158 45.648842 1.293474 27.809684 0 41.283368 13.473684 40.421053 40.421053v65.185684h37.807158v29.992421h-37.807158v24.791579zM343.174737 220.133053l-22.177684-18.243369a311.808 311.808 0 0 0 39.127579-44.328421l26.085052 19.56379a506.341053 506.341053 0 0 1-43.034947 43.008zM748.678737 295.774316h36.513684v-174.726737h-36.513684zM742.157474 410.516211a14.120421 14.120421 0 0 1 2.613894 5.227789 30.72 30.72 0 0 0 5.200843 7.814737l-40.421053 3.907368c-19.132632-44.328421-53.894737-81.273263-104.313263-110.834526 1.724632-2.613895 3.907368-6.952421 6.521263-13.042526l11.722105-19.56379c46.08 30.423579 79.548632 62.598737 100.405895 96.498526 21.746526-36.513684 54.757053-67.799579 99.085474-93.884631 4.338526 11.290947 9.566316 22.608842 15.656421 33.899789-39.100632 20.857263-71.248842 50.849684-96.471579 89.977264zM692.628211 295.774316h-35.220211v-40.421053c2.613895-53.894737-13.042526-92.591158-46.942316-116.035368 10.428632-8.704 19.994947-16.949895 28.698948-24.764632 38.238316 31.285895 56.077474 77.797053 53.463579 139.506526v41.714527zM566.137263 491.358316h50.849684v-20.857263h32.606316V737.792h-116.062316v-271.225263h32.606316v24.791579z m0 215.147789h50.849684v-76.934737h-50.849684V706.506105z m0-106.927158h50.849684v-76.934736h-50.849684V599.578947zM584.407579 427.466105c-15.656421-53.032421-36.944842-101.268211-63.892211-144.734316 0.862316-5.227789 2.182737-12.180211 3.907369-20.857263 2.613895-11.290947 4.338526-19.994947 5.200842-26.085052 10.428632 15.656421 20.426105 31.285895 29.992421 46.942315v-165.591578h33.899789v233.391157c8.704 20.857263 16.949895 43.466105 24.764632 67.799579l-33.872842 9.135158zM712.165053 610.007579c-7.814737 12.180211-13.473684 21.288421-16.949895 27.378526l-27.378526-15.656421c0.862316-1.724632 2.613895-4.338526 5.227789-7.814737a2855.828211 2855.828211 0 0 0 36.513684-66.506105l29.992421 18.243369a1427.617684 1427.617684 0 0 1-27.405473 44.355368zM766.949053 513.509053c0.862316-17.381053-8.272842-26.085053-27.378527-26.085053h-46.942315c3.476211-10.428632 6.521263-21.288421 9.135157-32.606316h52.170106c32.175158 0 47.804632 16.087579 46.942315 48.23579v161.68421h36.513685v32.606316H800.875789V761.263158h-33.899789v-63.892211H662.635789v-32.606315h104.313264v-151.255579z"  horiz-adv-x="1024" />

    
    <glyph glyph-name="zhifu" unicode="&#58933;" d="M963.764706 191.247059c0 96.376471-30.117647 186.729412-81.317647 259.011765-24.094118 36.141176-51.2 66.258824-81.317647 90.352941-30.117647 24.094118-60.235294 45.176471-96.376471 60.235294C752.941176 652.047059 783.058824 718.305882 783.058824 793.6c-15.058824 60.235294-36.141176 81.317647-60.235295 81.317647-45.176471 0-105.411765-75.294118-180.705882-81.317647-99.388235 0-177.694118 69.270588-234.917647 69.270588-27.105882 0-48.188235-18.070588-66.258824-69.270588 0-75.294118 30.117647-144.564706 81.317648-192.752941-33.129412-15.058824-66.258824-36.141176-96.376471-60.235294s-60.235294-54.211765-81.317647-90.352941C90.352941 377.976471 60.235294 287.623529 60.235294 191.247059v-39.152941c0-144.564706 81.317647-262.023529 180.705882-262.02353h542.117648c99.388235 0 180.705882 117.458824 180.705882 262.02353v24.094117 15.058824z m-60.235294-15.058824v-24.094117c0-108.423529-57.223529-201.788235-120.470588-201.788236H240.941176c-63.247059 0-120.470588 93.364706-120.470588 201.788236v30.117647 9.035294 3.011765c0 81.317647 24.094118 159.623529 72.282353 225.882352 21.082353 30.117647 42.164706 54.211765 69.270588 75.294118 24.094118 21.082353 54.211765 39.152941 84.329412 51.2l78.305883 36.141177-60.235295 60.235294c-39.152941 39.152941-60.235294 87.341176-63.247058 141.552941 3.011765 9.035294 6.023529 15.058824 9.035294 18.070588 12.047059 0 36.141176-12.047059 57.223529-21.082353 45.176471-21.082353 105.411765-48.188235 174.682353-48.188235h6.023529c57.223529 6.023529 102.4 33.129412 138.541177 57.223529 9.035294 6.023529 21.082353 12.047059 30.117647 18.070589 0-3.011765 3.011765-9.035294 6.023529-21.082353-3.011765-54.211765-24.094118-105.411765-63.247058-141.552942l-60.235295-60.235294 78.305883-36.141176c30.117647-15.058824 57.223529-30.117647 84.329412-51.2 24.094118-18.070588 48.188235-42.164706 69.270588-75.294118 48.188235-66.258824 72.282353-144.564706 72.282353-225.882353v-21.082353zM617.411765 462.305882l-69.270589-126.494117c-18.070588-33.129412-30.117647-57.223529-33.129411-69.270589-12.047059 27.105882-45.176471 93.364706-102.4 195.764706h-66.258824l120.470588-207.811764h-99.388235v-45.176471H481.882353v-63.247059h-117.458824v-45.17647H481.882353v-93.364706h60.235294v93.364706h111.435294v45.17647H542.117647v63.247059h111.435294v45.176471h-96.37647l123.482353 207.811764h-63.247059z"  horiz-adv-x="1024" />

    
    <glyph glyph-name="yonghu" unicode="&#58900;" d="M977.92 39.424V99.84c0 123.904-219.648 157.696-219.648 157.696h-443.392S92.16 223.744 92.16 99.84v-60.416s-0.512-45.568 71.168-47.104c71.68-1.536 373.76 0 373.76 0s300.544-1.536 372.224 0 68.608 47.104 68.608 47.104zM614.4 266.24h-76.288l-223.232-4.608S92.16 223.232 92.16 99.328v-60.416s-0.512-45.568 71.168-47.104c71.68-1.536 72.192 1.024 72.192 1.024L453.632 158.72H614.4V266.24zM404.48 394.24h266.24v-163.84h-266.24zM785.408 627.712S819.2 524.288 727.04 462.336v185.344l58.368-19.968zM274.432 627.712S256 524.288 332.8 462.336v185.344l-58.368-19.968zM332.8 646.656v-188.928s45.056-162.816 205.824-162.816S742.4 460.8 742.4 460.8v172.544s10.24 245.76-203.776 245.76S332.8 646.656 332.8 646.656zM537.6 294.912c-158.72 0-204.8 162.816-204.8 162.816v188.928s-10.24 232.96 204.8 232.96V294.912zM450.048 745.984S484.352 609.28 801.792 609.28c0 0-5.12 273.408-263.168 273.408s-266.24-273.408-266.24-273.408 108.032 29.184 177.664 136.704zM399.872 346.624l-84.48-88.064 138.24-102.4L541.184 225.28zM673.28 346.624L757.76 258.56l-137.728-102.4L531.968 225.28z"  horiz-adv-x="1024" />

    
    <glyph glyph-name="shezhi" unicode="&#58983;" d="M556.07-64h-88.14a63.79 63.79 0 0 0-59.25 39.8c-5.57 13.63-13.61 34.73-22.29 62.21q-15.35 5.58-30.2 12.52C330.62 37.24 310 28 296.43 22.3a63.81 63.81 0 0 0-70 13.75L164 98.39a63.79 63.79 0 0 0-13.75 70c5.7 13.58 14.94 34.21 28.23 59.78Q171.6 243 166 258.38c-27.47 8.68-48.58 16.72-62.21 22.29A63.79 63.79 0 0 0 64 339.92v88.16a63.79 63.79 0 0 0 39.8 59.25c13.63 5.57 34.74 13.62 62.22 22.29q5.58 15.36 12.51 30.19C165.24 565.38 156 586 150.3 599.57a63.79 63.79 0 0 0 13.75 70L226.39 732a63.79 63.79 0 0 0 70 13.75c13.58-5.7 34.19-14.94 59.76-28.23Q371 724.39 386.38 730c8.68 27.48 16.72 48.59 22.3 62.22A63.79 63.79 0 0 0 467.93 832h88.15a63.79 63.79 0 0 0 59.25-39.8c5.57-13.63 13.62-34.74 22.29-62.21q15.35-5.58 30.2-12.52C693.38 730.76 714 740 727.57 745.7a63.79 63.79 0 0 0 70-13.75L860 669.61a63.79 63.79 0 0 0 13.75-70c-5.7-13.58-14.94-34.19-28.23-59.76Q852.4 525 858 509.62c27.47-8.68 48.58-16.72 62.21-22.29A63.79 63.79 0 0 0 960 428.07v-88.15a63.79 63.79 0 0 0-39.8-59.25c-13.63-5.57-34.73-13.61-62.21-22.29q-5.58-15.35-12.52-30.2C858.76 202.62 868 182 873.7 168.43a63.79 63.79 0 0 0-13.75-70L797.61 36a63.79 63.79 0 0 0-70-13.75c-13.58 5.7-34.19 14.94-59.76 28.23Q653 43.6 637.62 38c-8.68-27.47-16.72-48.58-22.29-62.21A63.79 63.79 0 0 0 556.07-64zM355.69 118.5a32 32 0 0 0 14.91-3.68 302.81 302.81 0 0 1 51.07-21.18 32 32 0 0 0 21.18-21.45c9.75-32.81 19-57.35 25.07-72.16h88.16c6.07 14.84 15.34 39.39 25.08 72.19a32 32 0 0 0 21.18 21.45 302.81 302.81 0 0 1 51.07 21.18 32 32 0 0 0 30.16-0.18c30.1-16.32 54-27.12 68.77-33.32l62.36 62.32c-6.21 14.79-17 38.7-33.33 68.8a32 32 0 0 0-0.18 30.16 302.83 302.83 0 0 1 21.18 51.07 32 32 0 0 0 21.45 21.18c32.81 9.75 57.35 19 72.16 25.07v88.16c-14.84 6.07-39.38 15.34-72.19 25.08a32 32 0 0 0-21.45 21.18 302.83 302.83 0 0 1-21.18 51.07 32 32 0 0 0 0.18 30.16c16.32 30.1 27.12 54 33.31 68.77l-62.29 62.33c-14.79-6.2-38.7-17-68.8-33.33a32 32 0 0 0-30.16-0.18 302.81 302.81 0 0 1-51.07 21.18 32 32 0 0 0-21.18 21.45c-9.74 32.8-19 57.35-25.07 72.16h-88.16c-6-14.78-15.26-39.19-25-71.79a32 32 0 0 0-21.3-21.85 302.81 302.81 0 0 1-51.07-21.17 32 32 0 0 0-30.16 0.18c-30.1 16.32-54 27.12-68.77 33.31l-62.32-62.3c6.2-14.79 17-38.7 33.33-68.8a32 32 0 0 0 0.18-30.16 302.81 302.81 0 0 1-21.17-51.07 32 32 0 0 0-21.45-21.18c-32.81-9.74-57.35-19-72.17-25.07v-88.16c14.74-6 39-15.21 71.5-24.87a32.07 32.07 0 0 0 22.39-22.2 303.54 303.54 0 0 1 20.59-49.62 32 32 0 0 0-0.3-31.59c-16.07-29.71-26.73-53.33-32.87-68l62.33-62.37c14.79 6.2 38.7 17 68.8 33.33a32 32 0 0 0 15.23 3.9zM556.07-64h-88.14a63.79 63.79 0 0 0-59.25 39.8c-5.57 13.63-13.61 34.73-22.29 62.21q-15.35 5.58-30.2 12.52C330.62 37.24 310 28 296.43 22.3a63.81 63.81 0 0 0-70 13.75L164 98.39a63.79 63.79 0 0 0-13.75 70c5.7 13.58 14.94 34.21 28.23 59.78Q171.6 243 166 258.38c-27.47 8.68-48.58 16.72-62.21 22.29A63.79 63.79 0 0 0 64 339.92v88.16a63.79 63.79 0 0 0 39.8 59.25c13.63 5.57 34.74 13.62 62.22 22.29q5.58 15.36 12.51 30.19C165.24 565.38 156 586 150.3 599.57a63.79 63.79 0 0 0 13.75 70L226.39 732a63.79 63.79 0 0 0 70 13.75c13.58-5.7 34.19-14.94 59.76-28.23Q371 724.39 386.38 730c8.68 27.48 16.72 48.59 22.3 62.22A63.79 63.79 0 0 0 467.93 832h88.15a63.79 63.79 0 0 0 59.25-39.8c5.57-13.63 13.62-34.74 22.29-62.21q15.35-5.58 30.2-12.52C693.38 730.76 714 740 727.57 745.7a63.79 63.79 0 0 0 70-13.75L860 669.61a63.79 63.79 0 0 0 13.75-70c-5.7-13.58-14.94-34.19-28.23-59.76Q852.4 525 858 509.62c27.47-8.68 48.58-16.72 62.21-22.29A63.79 63.79 0 0 0 960 428.07v-88.15a63.79 63.79 0 0 0-39.8-59.25c-13.63-5.57-34.73-13.61-62.21-22.29q-5.58-15.35-12.52-30.2C858.76 202.62 868 182 873.7 168.43a63.79 63.79 0 0 0-13.75-70L797.61 36a63.79 63.79 0 0 0-70-13.75c-13.58 5.7-34.19 14.94-59.76 28.23Q653 43.6 637.62 38c-8.68-27.47-16.72-48.58-22.29-62.21A63.79 63.79 0 0 0 556.07-64zM355.69 118.5a32 32 0 0 0 14.91-3.68 302.81 302.81 0 0 1 51.07-21.18 32 32 0 0 0 21.18-21.45c9.75-32.81 19-57.35 25.07-72.16h88.16c6.07 14.84 15.34 39.39 25.08 72.19a32 32 0 0 0 21.18 21.45 302.81 302.81 0 0 1 51.07 21.18 32 32 0 0 0 30.16-0.18c30.1-16.32 54-27.12 68.77-33.32l62.36 62.32c-6.21 14.79-17 38.7-33.33 68.8a32 32 0 0 0-0.18 30.16 302.83 302.83 0 0 1 21.18 51.07 32 32 0 0 0 21.45 21.18c32.81 9.75 57.35 19 72.16 25.07v88.16c-14.84 6.07-39.38 15.34-72.19 25.08a32 32 0 0 0-21.45 21.18 302.83 302.83 0 0 1-21.18 51.07 32 32 0 0 0 0.18 30.16c16.32 30.1 27.12 54 33.31 68.77l-62.29 62.33c-14.79-6.2-38.7-17-68.8-33.33a32 32 0 0 0-30.16-0.18 302.81 302.81 0 0 1-51.07 21.18 32 32 0 0 0-21.18 21.45c-9.74 32.8-19 57.35-25.07 72.16h-88.16c-6-14.78-15.26-39.19-25-71.79a32 32 0 0 0-21.3-21.85 302.81 302.81 0 0 1-51.07-21.17 32 32 0 0 0-30.16 0.18c-30.1 16.32-54 27.12-68.77 33.31l-62.32-62.3c6.2-14.79 17-38.7 33.33-68.8a32 32 0 0 0 0.18-30.16 302.81 302.81 0 0 1-21.17-51.07 32 32 0 0 0-21.45-21.18c-32.81-9.74-57.35-19-72.17-25.07v-88.16c14.74-6 39-15.21 71.5-24.87a32.07 32.07 0 0 0 22.39-22.2 303.54 303.54 0 0 1 20.59-49.62 32 32 0 0 0-0.3-31.59c-16.07-29.71-26.73-53.33-32.87-68l62.33-62.37c14.79 6.2 38.7 17 68.8 33.33a32 32 0 0 0 15.23 3.9zM512 192c-105.87 0-192 86.13-192 192s86.13 192 192 192 192-86.13 192-192-86.13-192-192-192z m0 320a128 128 0 1 1 128-128 128.15 128.15 0 0 1-128 128z"  horiz-adv-x="1024" />

    
    <glyph glyph-name="gongsi" unicode="&#58896;" d="M208 640v-544h384V640H208z m-64-544V640c0 35.3 28.7 64 64 64h384c35.3 0 64-28.7 64-64v-224h160c35.3 0 64-28.7 64-64v-256h16c17.7 0 32-14.3 32-32s-14.3-32-32-32H128c-17.7 0-32 14.3-32 32s14.3 32 32 32h16z m672 0V352H656v-256h160zM304 416h96c17.7 0 32-14.3 32-32v-48c0-17.7-14.3-32-32-32h-96c-17.7 0-32 14.3-32 32v48c0 17.7 14.3 32 32 32z m0-32v-48h96v48h-96z m0-128h96c17.7 0 32-14.3 32-32v-48c0-17.7-14.3-32-32-32h-96c-17.7 0-32 14.3-32 32v48c0 17.7 14.3 32 32 32z m0-32v-48h96v48h-96zM304 544v-48h96v48h-96z m0 32h96c17.7 0 32-14.3 32-32v-48c0-17.7-14.3-32-32-32h-96c-17.7 0-32 14.3-32 32v48c0 17.7 14.3 32 32 32z"  horiz-adv-x="1024" />

    
    <glyph glyph-name="pinpai" unicode="&#58922;" d="M0.0512-127.6672V895.9488h1894.1952v-1023.616H0.0512z m323.8912 223.1552h49.5872v43.8784h149.4528v-43.8784h49.5872V398.0544h-248.6272V95.488zM838.1696 711.1168H387.8912v-259.3536h52.1984v20.9664h345.8816v-20.9664h52.1984V711.1168z m64.6144-313.0624h-249.2928V95.488h49.5872v44.544h150.0928v-44.544h49.6128V398.0544z m308.6592 123.8016h-47.6416V733.3888H1116.16v-211.5328h-65.8944V714.3936h-47.6416v-363.4944c0-96.9216-14.3616-170.4704-43.0848-220.6976a599.168 599.168 0 0 0 40.4736-37.9904c33.5104 57.6256 50.2528 142.7712 50.2528 255.4368h70.4768v-245.6064h47.616v286.208h-118.0928v92.9792h161.1776v40.6272zM1606.912 262.5024h-147.4816v83.8144h-47.6416v-83.8144h-130.5344c57.4464 36.224 95.2832 74.2144 113.5616 113.9456h123.3408v-22.272h45.6704V668.544H1395.456c8.2688 17.024 17.2032 36.0192 26.7776 56.9856l-50.9184 15.7184a1123.5072 1123.5072 0 0 0-25.4464-72.704H1234.944v-292.096h104.3968c-19.9936-29.2608-53.0688-55.8848-99.1744-79.8976 10.4192-11.3408 19.9936-22.7072 28.6976-34.048h-79.616v-45.2096h222.5408v-119.8336h47.6416v119.8336h147.4816v45.2096z m-326.2976 239.6928h93.312c-2.176-33.1776-6.7584-60.6976-13.696-82.5088h-79.616v82.5088z m0 123.136h94.6176v-81.2288h-94.6176v81.2288z m237.5424-123.136v-82.5088h-108.9792c5.632 22.7072 9.1392 50.2016 10.4448 82.5088h98.5344z m-97.2288 123.136h97.2288v-81.2288h-97.2288v81.2288zM703.0784 352.2304h150.0928v-169.6256h-150.0928v169.6256zM440.0896 665.2672h345.8816v-146.688H440.0896v146.688z m-66.56-313.0368h149.4528v-168.32h-149.4528v168.32z"  horiz-adv-x="1894" />

    
    <glyph glyph-name="liwu" unicode="&#58882;" d="M909.2383156906668 410.6305014139259H114.7616843093333c-24.411293468444445 0-44.384169832296294 19.97287636385185-44.38416861866666 44.384169832296294v190.8519282157037c0 24.411293468444445 19.97287636385185 44.384169832296294 44.38416861866666 44.38416861866666H911.4575236361482c24.411293468444445 0 44.384169832296294-19.97287636385185 44.384169832296294-44.38416861866666v-190.8519282157037c-2.2192079454814815-24.411293468444445-22.19208430933333-44.384169832296294-46.60337777777777-44.384169832296294z m0 44.384169832296294v-22.19208552296296 22.19208552296296z m-794.4766313813333 190.8519282157037v-190.8519282157037H911.4575236361482v190.8519282157037H114.7616843093333zM849.319686599111-86.47219488237056H212.40685696948145c-13.315251313777777 0-22.19208430933333 8.876834209185184-22.19208430933333 22.19208430933333s8.876834209185184 22.19208430933333 22.19208430933333 22.19208552296296h639.1320387887406V410.6305014139259H174.6803134008889v-397.23831569066664c0-13.315251313777777-8.876834209185184-22.19208430933333-22.19208430933333-22.19208430933333s-22.19208430933333 8.876834209185184-22.19208552296296 22.19208430933333V408.4112934684444c0 24.411293468444445 19.97287636385185 44.384169832296294 44.384169832296294 44.38416861866666h676.8585823573334c24.411293468444445 0 44.384169832296294-19.97287636385185 44.38416861866666-44.38416861866666v-452.71852767762954c-2.2192079454814815-24.411293468444445-22.19208430933333-42.164960673185185-46.60337777777777-42.164960673185185zM512-77.59536067318504c-13.315251313777777 0-22.19208430933333 8.876834209185184-22.19208430933333 22.19208430933333V659.181849562074c0 13.315251313777777 8.876834209185184 22.19208430933333 22.19208430933333 22.19208430933333s22.19208430933333-8.876834209185184 22.19208430933333-22.19208430933333v-714.5851259259258c0-11.096042154666666-8.876834209185184-22.19208430933333-22.19208430933333-22.19208430933333zM520.8768342091852 636.9897652527407L341.12094814814816 805.6496079454816c-8.876834209185184 8.876834209185184-8.876834209185184 22.19208430933333 0 31.06891851851852 8.876834209185184 8.876834209185184 22.19208430933333 8.876834209185184 31.06891851851852 0l148.68696754251854-139.81013333333334 133.15250706962962 139.81013333333334c8.876834209185184 8.876834209185184 22.19208430933333 8.876834209185184 31.06891851851852 0 8.876834209185184-8.876834209185184 8.876834209185184-22.19208430933333 0-31.06891851851852l-164.22142558814815-168.65984269274074z"  horiz-adv-x="1024" />

    
    <glyph glyph-name="yincangdaan" unicode="&#58964;" d="M512 156.8c160.896 0 309.312 83.52 447.744 256-138.432 172.48-286.848 256-447.744 256-160.896 0-309.312-83.52-447.744-256 138.432-172.48 286.848-256 447.744-256z m0-64c-182.016 0-347.904 93.312-497.664 279.936a64 64 0 0 0 0 80.128C164.096 639.488 329.984 732.8 512 732.8c182.016 0 347.904-93.312 497.664-279.936a64 64 0 0 0 0-80.128C859.904 186.112 694.016 92.8 512 92.8zM512 284.8a128 128 0 1 1 0 256 128 128 0 0 1 0-256z m0-64a192 192 0 1 0 0 384 192 192 0 0 0 0-384zM317.952-51.84a32 32 0 0 0-57.344 28.352L706.56 877.248a32 32 0 1 0 57.344-28.416L317.952-51.84z"  horiz-adv-x="1024" />

    
    <glyph glyph-name="xiaochengxu-" unicode="&#58967;" d="M914.285714 530.285714h-73.142857c0 3.657143-3.657143 7.314286-7.314286 7.314286l-256 256c3.657143 10.971429 7.314286 18.285714 7.314286 29.257143 0 40.228571-32.914286 73.142857-73.142857 73.142857s-73.142857-32.914286-73.142857-73.142857c0-10.971429 3.657143-18.285714 7.314286-29.257143L179.2 530.285714H109.714286c-58.514286 0-109.714286-47.542857-109.714286-109.714285v-438.857143c0-62.171429 51.2-109.714286 109.714286-109.714286h804.571428c62.171429 0 109.714286 47.542857 109.714286 109.714286V420.571429c0 62.171429-47.542857 109.714286-109.714286 109.714285zM504.685714 749.714286h14.628572l219.428571-219.428572H285.257143l219.428571 219.428572zM950.857143-18.285713999999984c0-18.285714-18.285714-36.571429-36.571429-36.571429H109.714286c-18.285714 0-36.571429 18.285714-36.571429 36.571429V420.571429c0 18.285714 18.285714 36.571429 36.571429 36.571428h804.571428c18.285714 0 36.571429-18.285714 36.571429-36.571428v-438.857143zM804.571429 310.85714299999995H219.428571c-18.285714 0-36.571429-18.285714-36.571428-36.571429s18.285714-36.571429 36.571428-36.571428h585.142858c18.285714 0 36.571429 18.285714 36.571428 36.571428s-18.285714 36.571429-36.571428 36.571429zM438.857143 164.57142899999997H219.428571c-18.285714 0-36.571429-14.628571-36.571428-36.571429 0-18.285714 18.285714-36.571429 36.571428-36.571429h219.428572c18.285714 0 36.571429 18.285714 36.571428 36.571429 0 21.942857-18.285714 36.571429-36.571428 36.571429z"  horiz-adv-x="1024" />

    
    <glyph glyph-name="gerenxinxi" unicode="&#58907;" d="M226.2528-15.12106700000004c-46.711467 0-90.453333 0.443733-116.514133 1.809067-11.895467 0.597333-30.993067 7.0656-40.174934 11.246933-26.487467 12.0832-53.333333 38.0416-53.589333 68.829867-0.238933 28.5184 20.992 53.1456 63.112533 73.233067a5838.506667 5838.506667 0 0 0 49.527467 23.2448c85.486933 39.867733 191.863467 89.429333 188.296533 121.6-2.065067 18.5344-21.1968 46.8992-41.506133 76.9024-28.245333 41.796267-60.279467 89.207467-63.761067 135.611733-1.194667 15.940267-3.584 55.210667 0.238934 75.537067 14.165333 75.434667 97.006933 210.176 211.592533 210.176v-34.133334c-94.395733 0-166.0928-118.715733-178.056533-182.357333-2.5088-13.3632-1.518933-43.195733 0.256-66.6624 2.798933-37.376 32.136533-80.776533 58.026666-119.074133 23.688533-35.054933 44.1344-65.3312 47.138134-92.245334 6.263467-56.5248-88.200533-100.5568-207.8208-156.279466-16.349867-7.594667-32.887467-15.325867-49.288534-23.125334-28.2624-13.4656-43.758933-28.433067-43.656533-42.1376 0.119467-14.2848 17.186133-30.5664 33.6384-38.058666 7.338667-3.345067 22.1184-7.970133 27.7504-8.226134 75.1616-3.925333 309.367467-0.017067 311.7056 0.017067l0.597333-34.133333c-6.3488-0.085333-107.434667-1.774933-197.512533-1.774934zM619.605333-15.12106700000004c-90.0608 0-191.163733 1.6896-197.5296 1.774934l0.5632 34.133333c2.3552-0.034133 236.544-3.908267 311.688534-0.017067 5.666133 0.3072 20.4288 4.881067 27.767466 8.226134 16.452267 7.492267 33.536 23.808 33.655467 38.058666 0.119467 13.704533-15.377067 28.672-43.656533 42.1376-16.401067 7.799467-32.938667 15.496533-49.271467 23.108267-119.637333 55.7568-214.101333 99.822933-207.854933 156.296533 2.986667 26.914133 23.4496 57.224533 47.1552 92.245334 25.890133 38.280533 55.1936 81.681067 58.026666 119.074133 1.774933 23.466667 2.747733 53.2992 0.238934 66.6624-11.9296 63.6416-83.626667 182.357333-178.056534 182.357333v34.133334c114.602667 0 197.410133-134.7584 211.575467-210.176 3.84-20.309333 1.467733-59.5968 0.273067-75.537067-3.498667-46.421333-35.5328-93.815467-63.7952-135.611733-20.2752-30.0032-39.441067-58.368-41.506134-76.9024-3.566933-32.170667 102.826667-81.7664 188.330667-121.6 16.4352-7.645867 33.0752-15.394133 49.5104-23.2448 42.120533-20.087467 63.351467-44.714667 63.095467-73.233067-0.256-30.788267-27.101867-56.746667-53.589334-68.829867-9.147733-4.181333-28.245333-10.6496-40.174933-11.246933-26.0096-1.348267-69.751467-1.809067-116.445867-1.809067zM1008.0256 486.621867c0-9.437867-10.496-17.066667-23.466667-17.066667h-256c-12.970667 0-23.466667 7.6288-23.466666 17.066667 0 9.4208 10.496 17.066667 23.466666 17.066666h256c12.970667 0 23.466667-7.662933 23.466667-17.066666zM1008.0256 350.1056c0-9.454933-8.430933-17.066667-18.8416-17.066667H783.6672c-10.3936 0-18.8416 7.611733-18.8416 17.066667 0 9.403733 8.430933 17.066667 18.8416 17.066667H989.184c10.410667 0 18.8416-7.68 18.8416-17.066667zM1008.0256 220.63786700000003c0-9.437867-6.178133-17.066667-13.824-17.066667h-150.545067c-7.6288 0-13.824 7.6288-13.824 17.066667 0 9.437867 6.178133 17.066667 13.824 17.066666h150.545067c7.645867 0 13.824-7.662933 13.824-17.066666z"  horiz-adv-x="1024" />

    
    <glyph glyph-name="shenfenzheng" unicode="&#58909;" d="M1259.126154 895.684923H157.617231A157.538462 157.538462 0 0 1 0.315077 738.461538v-708.135384A157.538462 157.538462 0 0 1 157.538462-127.133538h1101.508923a157.538462 157.538462 0 0 1 157.380923 157.380923v708.135384A157.538462 157.538462 0 0 1 1259.126154 895.684923z m78.690461-865.437538a78.769231 78.769231 0 0 0-78.690461-78.690462H157.617231a78.769231 78.769231 0 0 0-78.611693 78.690462v708.135384A78.769231 78.769231 0 0 0 157.538462 817.073231h1101.508923a78.769231 78.769231 0 0 0 78.690461-78.769231v-708.056615zM1110.488615 353.122462a195.347692 195.347692 0 0 1 69.947077 149.188923A196.923077 196.923077 0 0 1 983.827692 699.076923a196.923077 196.923077 0 0 1-196.686769-196.686769c0-59.943385 27.569231-113.033846 70.104615-149.188923a275.534769 275.534769 0 0 1-148.795076-244.184616 39.384615 39.384615 0 0 1 78.76923 0 196.923077 196.923077 0 0 0 196.608 196.68677 196.923077 196.923077 0 0 0 196.68677-196.68677 39.384615 39.384615 0 0 1 78.76923 0 275.534769 275.534769 0 0 1-148.716307 244.184616zM865.673846 502.311385a117.996308 117.996308 0 1 0 235.992616 0 117.996308 117.996308 0 0 0-235.992616 0zM669.065846 620.307692H196.923077a39.384615 39.384615 0 0 1 0-78.611692h472.064a39.384615 39.384615 0 0 1 0 78.611692z m-39.384615-196.686769H197.001846a39.384615 39.384615 0 0 1 0-78.690461h432.679385a39.384615 39.384615 0 0 1 0 78.76923zM511.684923 226.934154H197.001846a39.384615 39.384615 0 0 1 0-78.690462h314.683077a39.384615 39.384615 0 0 1 0 78.769231z"  horiz-adv-x="1417" />

    
    <glyph glyph-name="X" unicode="&#58978;" d="M825.429 129.72L543.52 387.259l281.974 257.562a25.023 25.023 0 0 1 7.411 17.765 25.022 25.022 0 0 1-7.411 17.764c-9.853 9.837-25.811 9.837-35.664 0L489.762 406.314c-5.224-5.202-7.5-12.225-7.151-19.079-0.348-6.802 1.861-13.764 7.151-19.055l300.091-274.055a25.187 25.187 0 0 1 24.768-7.466 25.191 25.191 0 0 1 10.808 43.061z m0 0M807.633 691.103c7.67 0 14.864-2.95 20.33-8.369a28.326 28.326 0 0 0 8.423-20.268 28.35 28.35 0 0 0-8.574-20.202L548.617 387.259l279.214-255.222c5.419-5.419 8.434-12.574 8.434-20.203 0-7.632-2.949-14.783-8.345-20.202-5.423-5.419-12.662-8.345-20.291-8.345-7.628 0-14.849 3.012-20.14 8.302L487.293 365.797a27.851 27.851 0 0 0-8.174 21.33c-0.411 8.156 2.601 16.043 8.302 21.722l299.94 273.884c5.419 5.354 12.641 8.37 20.272 8.37z m0-600.947a21.74 21.74 0 0 1 21.803 21.764 21.797 21.797 0 0 1-6.35 15.241L538.427 387.259 823.022 647.29a21.449 21.449 0 0 1 0 30.634 21.81 21.81 0 0 1-30.913-0.132L492.146 403.907a21.96 21.96 0 0 1-6.156-16.757 21.443 21.443 0 0 1 6.028-16.407l300.219-274.168c4.097-4.12 9.563-6.419 15.396-6.419z m0 0M195.815 129.72a25.19 25.19 0 0 1-7.481-24.764 25.199 25.199 0 0 1 18.284-18.3 25.191 25.191 0 0 1 24.771 7.47l300.088 274.055c5.291 5.291 7.501 12.253 7.155 19.055 0.345 6.85-1.93 13.877-7.155 19.079L231.409 680.35c-9.849 9.837-25.807 9.837-35.661 0a25.003 25.003 0 0 1 0-35.529L477.72 387.259 195.815 129.72z m0 0M213.609 691.103c7.633 0 14.849-3.016 20.272-8.365l299.937-273.885c5.706-5.682 8.713-13.569 8.302-21.725a27.84 27.84 0 0 0-8.174-21.33L233.75 91.59c-5.291-5.291-12.508-8.302-20.14-8.302-7.628 0-14.868 2.926-20.287 8.345-5.395 5.419-8.345 12.57-8.345 20.202 0 7.629 3.016 14.784 8.43 20.203L472.627 387.26 193.431 642.264a28.33 28.33 0 0 0-8.578 20.206 28.354 28.354 0 0 0 8.423 20.268c5.465 5.415 12.663 8.365 20.333 8.365z m0-600.943c5.834 0 11.299 2.294 15.396 6.414l300.216 274.168a21.45 21.45 0 0 1 6.031 16.407 21.968 21.968 0 0 1-6.159 16.757l-299.96 273.885a21.81 21.81 0 0 1-30.912 0.132 21.446 21.446 0 0 1 0-30.634l284.594-260.031-284.66-260.096a21.779 21.779 0 0 1-6.349-15.237 21.72 21.72 0 0 1 6.383-15.411 21.72 21.72 0 0 1 15.42-6.354z m0 0"  horiz-adv-x="1024" />

    
    <glyph glyph-name="dingdan" unicode="&#59026;" d="M583.6 606.3H200.9c-10.2 0-17.9-12.7-17.9-21.6 0-10.2 7.7-21.7 17.9-21.7h382.7c10.3 0 17.9 12.7 17.9 21.7s-7.6 21.6-17.9 21.6zM1015 557.9L908.7 661.1c-15.3 15.3-43.5 12.7-61.4-5.1l-58.9-57.3 161.3-159.2 58.9 57.3c17.9 17.8 20.5 45.8 6.4 61.1zM733.4-53.6c0-10.2-6.4-14-16.6-14H80.7c-10.2 0-20.5 3.8-20.5 14V751.6c-1.3 19.1 11.5 15.3 25.6 15.3h70.4v-26.8c0-10.2 11.5-19.1 23-19.1 10.2 0 23.1 8.9 23.1 19.1v26.8h105v-26.8c0-10.2 11.5-19.1 23-19.1 10.2 0 23.1 8.9 23.1 19.1v26.8h96v-26.8c0-10.2 11.5-19.1 23-19.1 10.3 0 23 8.9 23 19.1v26.8h96v-26.8c0-10.2 11.5-19.1 23-19.1 10.2 0 23 8.9 23 19.1v26.8H718c10.2 0 16.6-5.1 16.6-15.3v-132.5l58.9 57.3v75.2c0 42-32 72.6-75.5 72.6h-81.9V873.9C636.1 884.1 624.6 893 613 893c-10.2 0-23-8.9-23-19.1v-49.7h-96V873.9C494.1 884.1 482.6 893 471 893c-10.2 0-23-8.9-23-19.1v-49.7h-96V873.9C352 884.1 340.5 893 329 893c-10.3 0-23-8.9-23-19.1v-49.7H201V873.9C201 884.1 189.5 893 178 893c-10.2 0-23-8.9-23-19.1v-49.7H85.7C28.2 824.2 0 793.6 0 751.6v-804c0-42 38.4-72.6 81.9-72.6h634.8c43.5 0 75.5 30.6 75.5 72.6V225.4l-58.9-57.3v-221.7zM486.4 305.7H202.2c-10.3 0-19.2-11.4-19.2-21.7 0-8.9 9-20.4 19.2-20.4h245.7l-74.2-67.5c-2.5-1.3-7.7-8.9-8.9-15.3-1.3-1.3-1.3-1.3-1.3-2.5l-64-197.5c-2.5-6.4-1.3-11.5 2.6-15.3 3.8-3.8 10.2-3.8 15.4-2.6l202.2 62.4c1.3 1.3 1.3 1.3 2.6 1.3 7.7 1.3 12.8 6.4 14.1 7.6l386.5 379.7-162.6 158-273.9-266.2z m-84.5-285.5l-42.2 42 26.9 82.8 99.8-98.1-84.5-26.7z m351.9 468.9l-302-295.6c-5.1-5.1-15.4-5.1-20.5 0-6.4 5.1-6.4 15.3 0 20.4l303.4 295.6c5.1 5.1 15.4 5.1 20.5 0 5.1-6.4 5.1-15.3-1.4-20.4zM583.6 459.8H200.9c-10.2 0-17.9-12.7-17.9-21.7 0-10.2 7.7-21.6 17.9-21.6h382.7c10.3 0 17.9 12.7 17.9 21.6 0 9-7.6 21.7-17.9 21.7z"  horiz-adv-x="1024" />

    
    <glyph glyph-name="kefu2" unicode="&#59241;" d="M515.53 125.769c4.367 0 8.813 0.267 13.285 0.8 42.89 5.147 79.31 35.125 92.754 76.438 1.013 3.093-0.452 6.4-3.407 7.76-2.929 1.36-6.47 0.187-8.12-2.586-0.16-0.267-17.199-27.791-83.543-36.752-9.93-1.334-19.594-2.028-28.753-2.028-46.483 0.027-67.196 17.55-67.382 17.71-2.343 2.08-5.91 2.133-8.306 0.106-2.423-2.027-2.982-5.547-1.332-8.242 20.234-32.804 56.547-53.206 94.804-53.206zM872.253 536.922c-0.586 0-1.119-0.107-1.677-0.107-38.87 168.291-187.4 293.83-365.481 293.83-182.98 0-334.917-132.474-368.596-307.725-32.746-5.894-57.666-34.672-57.666-69.477v-139.301c0-39.045 31.31-70.703 69.966-70.703 21.805 0 41.053 10.294 53.859 26.11 30.934-81.822 93.922-147.803 173.627-182.61 0.191 0.416 1.7 3.349 3.514 5.686 1.258 1.62 2.66 2.952 3.868 2.952 1.252 0 2.397-0.453 3.381-1.147-18.45 13.736-85.087 84.333-99.516 182.853-6.337 43.367 26.143 85.933 63.975 92.974 60.727 11.309 121.135 24.19 181.862 35.285 38.603 7.041 64.987 28.217 81.12 63.475 3.78 8.242 9.239 24.91 11.742 48.94 0.665 3.574 3.593 6.322 7.348 6.322 2.503 0 4.633-1.28 6.044-3.12l1.677 1.04c23.934-34.752 71.403-111.696 78.218-192.828 7.828-92.76 3.461-156.29-67.542-221.286-0.08-0.08-0.186-0.186-0.293-0.267a5.821 5.821 0 0 1-1.57-3.974c0-2 1.065-3.707 2.609-4.747 0.585-0.24 1.172-0.56 1.757-0.8 0.479-0.106 0.931-0.267 1.411-0.267s0.906 0.16 1.331 0.267c1.013 0.533 1.97 1.147 2.956 1.68 71.802 39.553 126.885 105.616 152.336 185.067 10.303-15.308 26.436-26.323 45.18-30.164-30.058-136.713-151.991-222.272-303.05-235.26-9.053 22.456-31.336 38.405-57.507 38.405-34.183 0-61.898-27.07-61.898-60.436s27.714-60.408 61.898-60.408c27.555 0 50.638 17.709 58.651 42.032 174.86 14.216 315.03 118.15 344.29 279.64 25.85 10.803 44.007 36.166 44.007 65.77V465.579c-0.002 39.392-32.164 71.344-71.831 71.344z m-64.508-40.486c-45.605 123.537-163.785 211.79-302.81 211.79-138.44 0-256.193-87.506-302.224-210.243-2.29 2.8-4.979 5.2-7.615 7.628 26.064 149.568 154.787 263.291 309.999 263.291 154.467 0 282.79-112.602 309.705-261.131-2.662-3.574-5.112-7.309-7.055-11.335zM376.292 86.93600000000004l-0.008 0.003c-0.029-0.064-0.03-0.072 0.008-0.003z"  horiz-adv-x="1024" />

    
    <glyph glyph-name="youjiantou" unicode="&#58928;" d="M130.031746 135.184254h4161.015873c35.75873 0 65.015873 29.257143 65.015873 65.015873s-29.257143 65.015873-65.015873 65.015873H130.031746c-35.75873 0-65.015873-29.257143-65.015873-65.015873s29.257143-65.015873 65.015873-65.015873zM4337.078857 154.103873a65.210921 65.210921 0 0 1 0 91.932444L3969.284063 613.831111a65.210921 65.210921 0 0 1-91.932444 0 65.210921 65.210921 0 0 1 0-91.932444l367.794794-367.794794a65.275937 65.275937 0 0 1 91.932444 0z"  horiz-adv-x="4421" />

    
    <glyph glyph-name="xiangxiajiantoux" unicode="&#59000;" d="M693.906286 477.915429a34.230857 34.230857 0 0 1-24.941715-10.678858L512 310.272 355.035429 467.236571a34.450286 34.450286 0 0 1-49.883429 0 34.450286 34.450286 0 0 1 0-49.956571l181.906286-181.906286a34.450286 34.450286 0 0 1 49.883428 0l181.906286 181.906286a34.450286 34.450286 0 0 1 0 49.956571 32.402286 32.402286 0 0 1-24.941714 10.678858zM512 895.268571C230.253714 895.268571 0.731429 665.673143 0.731429 384c0-281.746286 229.522286-511.268571 511.268571-511.268571 281.746286 0 511.268571 229.522286 511.268571 511.268571C1023.268571 665.746286 793.673143 895.268571 512 895.268571z m0-951.149714A440.393143 440.393143 0 0 0 72.118857 384 440.393143 440.393143 0 0 0 512 823.881143 440.393143 440.393143 0 0 0 951.881143 384 440.393143 440.393143 0 0 0 512-55.881143z"  horiz-adv-x="1024" />

    
    <glyph glyph-name="zuojiantou" unicode="&#59045;" d="M691-109.9L261.1 320c-17.3 17.3-26.7 40.2-26.7 64.7s9.5 47.4 26.7 64.7L691 879.2c22.3 22.3 58.5 22.3 80.8 0 22.3-22.3 22.3-58.5 0-80.8L358.1 384.6l413.8-413.8c22.3-22.3 22.3-58.5 0-80.8-11.2-11.2-25.8-16.7-40.5-16.7-14.6 0.1-29.2 5.6-40.4 16.8z m0 0"  horiz-adv-x="1024" />

    
    <glyph glyph-name="xianshidaan" unicode="&#58963;" d="M947.6 418.9c-131.1 163.4-276.3 245-435.6 245s-304.5-81.7-435.6-245c-16.4-20.5-16.4-49.7 0-70.1 131.1-163.4 276.3-245 435.6-245s304.5 81.7 435.6 245c16.4 20.4 16.4 49.6 0 70.1zM512 176c-130.6 0-251.1 67.8-363.5 207.8 112.4 140 232.9 207.8 363.5 207.8s251.1-67.8 363.5-207.8C763.1 243.8 642.6 176 512 176zM512 304c44.1 0 79.8 35.7 79.8 79.8 0 44.1-35.7 79.8-79.8 79.8-44.1 0-79.8-35.7-79.8-79.8-0.1-44.1 35.7-79.8 79.8-79.8z m0-72c-83.8 0-151.8 68-151.8 151.8 0 83.8 68 151.8 151.8 151.8 83.8 0 151.8-68 151.8-151.8 0-83.8-68-151.8-151.8-151.8z m0 0"  horiz-adv-x="1024" />

    
    <glyph glyph-name="xiangshangjiantou" unicode="&#59097;" d="M512-128C230.4-128 0 102.4 0 384S230.4 896 512 896s512-230.4 512-512-230.4-512-512-512z m0 51.2c253.44 0 460.8 207.36 460.8 460.8S765.44 844.8 512 844.8 51.2 637.44 51.2 384s207.36-460.8 460.8-460.8zM711.68 289.28L512 488.96l-199.68-199.68-35.84 35.84 235.52 235.52 235.52-235.52z"  horiz-adv-x="1024" />

    
    <glyph glyph-name="weizhi" unicode="&#58906;" d="M512-126.083593c-95.181535 0-383.281347 286.822208-383.281347 638.802246a383.281347 383.281347 0 0 0 766.562694 0c0-344.31441-293.849033-638.802246-383.281347-638.802246zM512 832.119775a319.401123 319.401123 0 0 1-319.401123-319.401122c0-319.401123 265.741734-574.922021 319.401123-574.922022 53.659389 6.388022 319.401123 255.520898 319.401123 574.922022a319.401123 319.401123 0 0 1-319.401123 319.401122z m0-511.041796a176.948222 176.948222 0 1 0 175.670618 175.670617A176.948222 176.948222 0 0 0 512 321.077979z m0 288.738615a113.067998 113.067998 0 1 1 111.790393-113.067998A113.067998 113.067998 0 0 1 512 609.816594z"  horiz-adv-x="1024" />

    
    <glyph glyph-name="ziyuan" unicode="&#58895;" d="M568.593067 462.848h82.466133v-52.360533H568.593067zM771.413333 554.257067H252.586667a27.306667 27.306667 0 0 1-27.306667-27.306667v-368.64a27.306667 27.306667 0 0 1 27.306667-27.306667h518.826666a27.306667 27.306667 0 0 1 27.306667 27.306667v368.64a27.306667 27.306667 0 0 1-27.306667 27.306667z m-407.1424-102.4v27.306666h44.032l1.979734 26.8288 27.306666-1.979733-1.8432-24.849067h67.857067a13.653333 13.653333 0 0 0 13.653333-13.175466c0.887467-26.624-0.750933-88.746667-34.542933-93.047467a245.76 245.76 0 0 0-30.3104-1.911467 154.487467 154.487467 0 0 0-15.496533 0.341334l2.935466 27.306666a184.32 184.32 0 0 1 39.458134 1.2288c5.256533 3.003733 9.966933 26.8288 10.6496 51.8144H433.493333a82.944 82.944 0 0 0-6.826666-23.005866l-0.4096-0.887467c-14.199467-25.3952-36.522667-57.617067-62.190934-66.901333L354.986667 386.525867c13.653333 4.778667 30.993067 24.9856 47.3088 53.998933a67.7888 67.7888 0 0 1 3.6864 11.0592z m-3.140266-206.916267h249.0368v-27.306667H361.130667z m313.617066-19.6608c-6.826667-35.0208-24.439467-56.1152-48.264533-58.368H552.482133v27.306667h71.953067c15.36 2.048 21.845333 28.194133 23.278933 35.2256 0 3.413333 0.477867 18.090667 0.682667 37.819733H426.871467a17.408 17.408 0 0 0-16.7936 21.9136l8.738133 32.904533 26.4192-6.826666-5.461333-20.48h152.576l6.280533 40.96H397.5168v27.306666H605.525333a21.367467 21.367467 0 0 0 21.162667-24.644266l-6.826667-43.690667h38.434134A17.476267 17.476267 0 0 0 675.84 276.8896c-0.546133-47.854933-0.887467-50.312533-1.092267-51.6096z m3.618134 178.3808a20.48 20.48 0 0 0-20.48-20.48H561.7664a20.48 20.48 0 0 0-20.48 20.48v66.013867a20.48 20.48 0 0 0 20.48 20.48h96.119467a20.48 20.48 0 0 0 20.48-20.48zM464.213333 677.546667c-13.175467 14.472533-24.644267 17.408-40.96 10.376533L278.664533 624.981333h232.584534zM512 896a512 512 0 1 1 512-512A512 512 0 0 1 512 896zM245.1456 639.931733l2.116267 1.160534L412.398933 713.045333c26.897067 11.6736 51.063467 5.9392 72.021334-17.134933l56.797866-64.034133a23.005867 23.005867 0 0 0-20.48-34.133334h-262.826666a23.005867 23.005867 0 0 0-12.765867 42.257067zM826.026667 158.3104a54.613333 54.613333 0 0 0-54.613334-54.613333H252.586667a54.613333 54.613333 0 0 0-54.613334 54.613333v368.64a54.613333 54.613333 0 0 0 54.613334 54.613333h518.826666a54.613333 54.613333 0 0 0 54.613334-54.613333z"  horiz-adv-x="1024" />

    
    <glyph glyph-name="xiayiye" unicode="&#58881;" d="M201.216 698.368c-14.336 11.776-16.384 32.768-4.608 47.104s32.768 16.384 47.104 4.608c1.536-1.536 3.072-2.56 4.608-4.096l379.392-379.392-47.616-47.616-378.88 379.392zM248.32-13.312a33.3824 33.3824 0 0 0-47.104 4.608c-10.24 12.288-10.24 30.208 0 42.496l379.392 379.392 47.616-47.616-379.904-378.88zM420.352 713.728a33.3824 33.3824 0 0 0-4.608 47.104c11.776 14.336 32.768 16.384 47.104 4.608 1.536-1.536 3.072-2.56 4.608-4.096l379.392-379.392-47.616-47.616-378.88 379.392zM467.456 2.56a33.3824 33.3824 0 0 0-47.104 4.608c-10.24 12.288-10.24 30.208 0 42.496l379.392 379.392 47.616-47.616-379.904-378.88z"  horiz-adv-x="1024" />

    


  </font>
</defs>
</svg>
